<svg width="24" height="25" viewBox="0 0 24 25" fill="none" xmlns="http://www.w3.org/2000/svg">
<path d="M17.5953 21.5058H17.5673C13.7257 21.4112 10.0596 19.8773 7.29534 17.2078C4.62486 14.446 3.09004 10.7813 2.99523 6.94079C2.98957 6.40278 3.20081 5.88515 3.58134 5.50479L6.29534 2.79279C6.68584 2.4024 7.31884 2.4024 7.70934 2.79279L11.7093 6.79279C12.0997 7.18329 12.0997 7.81629 11.7093 8.20679L10.1133 9.79979C10.4094 10.9057 10.9546 11.9292 11.7073 12.7918C12.5684 13.5448 13.5906 14.0904 14.6953 14.3868L16.2953 12.7928C16.6858 12.4024 17.3188 12.4024 17.7093 12.7928L21.7093 16.7928C22.0997 17.1833 22.0997 17.8163 21.7093 18.2068L18.9953 20.9198C18.6253 21.2937 18.1214 21.5046 17.5953 21.5058ZM7.00034 4.91479H6.99534L4.99534 6.91879C5.07689 10.2374 6.40166 13.4045 8.70734 15.7928C11.0958 18.0977 14.2622 19.4223 17.5803 19.5048L19.5873 17.4998L16.9953 14.9148L15.7023 16.2068C15.5174 16.3938 15.2654 16.4993 15.0023 16.4998C14.9321 16.4998 14.862 16.4924 14.7933 16.4778C13.127 16.1092 11.5797 15.3283 10.2933 14.2068C9.1718 12.9204 8.39095 11.3732 8.02234 9.70679C7.95281 9.37555 8.05553 9.03162 8.29534 8.79279L9.58734 7.49979L7.00034 4.91479Z" fill="#535353"/>
</svg>
