<svg width="13" height="22" viewBox="0 0 13 22" fill="none" xmlns="http://www.w3.org/2000/svg">
<path d="M3.40386 3.61891C2.67563 4.15294 2.25 4.8733 2.25 5.75L2.25 17.2417L2.2501 17.2448C2.25042 17.2531 2.25127 17.2705 2.25338 17.2959C2.25764 17.3469 2.26682 17.4277 2.2863 17.5279C2.32601 17.7321 2.40394 17.9935 2.55128 18.2461C2.80786 18.686 3.35225 19.25 4.75 19.25C6.14775 19.25 6.69214 18.686 6.94872 18.2461C7.09606 17.9935 7.17399 17.7321 7.2137 17.5279C7.23318 17.4277 7.24236 17.3469 7.24662 17.2959C7.24873 17.2705 7.24958 17.2531 7.2499 17.2448L7.25 17.2421L7.25 7.77488C7.249 7.7666 7.24685 7.75183 7.24256 7.73256C7.23097 7.68038 7.20834 7.61528 7.16795 7.5547C7.12609 7.49191 6.95869 7.25 6.25 7.25C5.54131 7.25 5.37391 7.49191 5.33205 7.5547C5.29166 7.61529 5.26903 7.68038 5.25744 7.73256C5.25315 7.75183 5.251 7.7666 5.25 7.77488L5.25 15.75L3.25 15.75L3.25 7.75L3.25147 7.68875C3.25266 7.66206 3.25476 7.6291 3.25841 7.59074C3.26568 7.51437 3.27932 7.41452 3.30506 7.29869C3.35597 7.06962 3.45834 6.75971 3.66795 6.4453C4.12609 5.75809 4.95869 5.25 6.25 5.25C7.54131 5.25 8.37391 5.75809 8.83205 6.4453C9.04166 6.75972 9.14403 7.06962 9.19494 7.29869C9.22068 7.41452 9.23432 7.51438 9.24159 7.59074C9.24524 7.6291 9.24734 7.66206 9.24853 7.68875L9.25 7.75L9.25 17.1563L9.23971 17.462C9.23029 17.575 9.21213 17.7286 9.17693 17.9096C9.10726 18.2679 8.96644 18.7565 8.67628 19.2539C8.05786 20.314 6.85225 21.25 4.75 21.25C2.64775 21.25 1.44214 20.314 0.823721 19.2539C0.533564 18.7565 0.392737 18.2679 0.323072 17.9096C0.287867 17.7286 0.269708 17.575 0.26029 17.462C0.255567 17.4053 0.252999 17.3583 0.25161 17.3226L0.25 17.125L0.25 5.75C0.25 4.1267 1.07437 2.84706 2.22114 2.00609C3.35083 1.17766 4.81446 0.75 6.25 0.75C7.68554 0.75 9.14918 1.17766 10.2789 2.0061C11.4256 2.84706 12.25 4.1267 12.25 5.75L12.25 16.7491L10.25 16.7499L10.25 5.75C10.25 4.8733 9.82437 4.15294 9.09614 3.61891C8.35082 3.07234 7.31446 2.75 6.25 2.75C5.18554 2.75 4.14918 3.07234 3.40386 3.61891Z" fill="#112E8D"/>
</svg>
