<svg width="32" height="32" viewBox="0 0 32 32" fill="none" xmlns="http://www.w3.org/2000/svg">
<path d="M16 29.3337C14.0753 27.7379 12.2913 25.9885 10.6667 24.1036C8.2286 21.2731 5.33338 17.0577 5.33338 13.0407C5.33121 8.84536 7.93031 5.06221 11.9178 3.45662C15.9053 1.85104 20.4953 2.7395 23.5459 5.70742C25.5519 7.64866 26.6756 10.2893 26.6667 13.0407C26.6667 17.0577 23.7714 21.2731 21.3333 24.1036C19.7086 25.9885 17.9247 27.7379 16 29.3337ZM16 5.63484C11.7942 5.63974 8.38602 8.9526 8.38098 13.0407C8.38098 14.7678 9.18402 17.7583 13.0057 22.2033C13.9476 23.2965 14.9471 24.3416 16 25.3345C17.053 24.3428 18.0529 23.2991 18.9958 22.2077C22.816 17.7568 23.619 14.7663 23.619 13.0407C23.614 8.9526 20.2058 5.63974 16 5.63484ZM16 17.4843C13.4753 17.4843 11.4286 15.4948 11.4286 13.0407C11.4286 10.5866 13.4753 8.5972 16 8.5972C18.5247 8.5972 20.5714 10.5866 20.5714 13.0407C20.5714 14.2192 20.0898 15.3495 19.2325 16.1828C18.3752 17.0161 17.2124 17.4843 16 17.4843Z" fill="#F09D20"/>
</svg>
