<svg width="49" height="48" viewBox="0 0 49 48" fill="none" xmlns="http://www.w3.org/2000/svg">
<path d="M43.1667 48H5.83333C2.88781 48 0.5 45.6122 0.5 42.6667V5.33333C0.5 2.38781 2.88781 0 5.83333 0H43.1667C46.1122 0 48.5 2.38781 48.5 5.33333V42.6667C48.5 45.6122 46.1122 48 43.1667 48ZM5.83333 5.33333V42.6667H43.1667V5.33333H5.83333ZM40.5 37.3333H8.5L16.5 26.6667L19.1667 29.3333L27.1667 18.6667L40.5 37.3333ZM15.1667 21.3333C12.9575 21.3333 11.1667 19.5425 11.1667 17.3333C11.1667 15.1242 12.9575 13.3333 15.1667 13.3333C17.3758 13.3333 19.1667 15.1242 19.1667 17.3333C19.1667 19.5425 17.3758 21.3333 15.1667 21.3333Z" fill="#BBBBBF"/>
</svg>
