<svg width="708" height="611" viewBox="0 0 708 611" fill="none" xmlns="http://www.w3.org/2000/svg">
<path d="M791.392 150.676C751.48 -17.9446 591.577 -144 400.392 -144C209.754 -144 50.2195 -18.6652 9.73699 149.229C89.9819 140.396 267.666 161.955 412.174 315.495C512.186 188.207 700.633 153.007 791.392 150.676Z" fill="#112E8D" fill-opacity="0.05"/>
<path d="M400.161 610.039C183.212 609.924 6.60089 447.49 0 244.783C117.834 233.045 308.55 256.685 412.174 445.093C506.378 256.685 682.965 233.045 800.784 244.783C794.183 447.49 617.571 609.924 400.622 610.039C400.545 610.039 400.469 610.039 400.392 610.039C400.315 610.039 400.238 610.039 400.161 610.039Z" fill="#112E8D" fill-opacity="0.05"/>
</svg>
