<svg width="118" height="32" viewBox="0 0 118 32" fill="none" xmlns="http://www.w3.org/2000/svg">
<path fill-rule="evenodd" clip-rule="evenodd" d="M56.4213 6.1453L54.8842 9.9925C47.1866 6.07049 44.2323 10.7526 44.2695 16.1494C44.2528 22.3272 46.8767 25.5179 55.595 22.481V26.4485C52.7604 27.5951 49.9011 27.7863 47.0419 27.3958C40.8978 26.2698 39.5385 21.0975 39.373 16.0912C39.3815 11.7873 41.0094 6.34478 46.9222 4.90312C50.9217 3.98495 53.6818 5.06921 56.4213 6.1453Z" fill="#102A83"/>
<path fill-rule="evenodd" clip-rule="evenodd" d="M72.589 4.80347V8.77922H63.1394V27.2794H58.4126V4.80347H72.589Z" fill="#102A83"/>
<path fill-rule="evenodd" clip-rule="evenodd" d="M74.0811 27.2794V4.80347H80.5144L85.8238 22.0031H85.9396L91.5465 4.80347H97.9757V27.2794H93.8272L93.7859 9.72648H93.6703L87.8856 27.2794H83.5223L78.1551 9.6683H78.0353L78.0973 27.2794H74.0811Z" fill="#102A83"/>
<path fill-rule="evenodd" clip-rule="evenodd" d="M99.814 4.85352H104.59V15.3146L112.334 4.85352H117.345L109.206 15.6221L117.759 27.2797H112.391L104.59 16.4239V27.2797H99.814V4.85352Z" fill="#102A83"/>
<path fill-rule="evenodd" clip-rule="evenodd" d="M0.09375 16.7207C2.94771 17.069 9.80659 17.5764 15.5824 23.4293C21.3798 17.5894 28.135 17.1422 31.0713 16.7207C30.6714 26.0924 21.9512 31.4547 15.5634 31.1501C7.88769 31.3777 0.401534 24.9417 0.09375 16.7207Z" fill="#102A83"/>
<path fill-rule="evenodd" clip-rule="evenodd" d="M0.51416 12.5896C4.95747 13.0081 10.5932 14.2852 15.5824 19.1939C20.1749 14.6919 25.1884 13.2185 30.6681 12.5951C29.1579 6.15785 23.0754 0.901542 15.6118 0.975378C9.56018 0.925785 2.71508 4.62116 0.51416 12.5896Z" fill="#F09D20"/>
</svg>
